<svg xmlns="http://www.w3.org/2000/svg" width="49.886" height="49.88" viewBox="0 0 49.886 49.88">
  <path id="Path_2370" data-name="Path 2370" d="M68.422-7.793l-9.475-9.475v-.005c0-.005,0,0-.005,0l-1.575-1.575a4.438,4.438,0,0,0-3.16-1.307,4.438,4.438,0,0,0-3.16,1.307l-4.74,4.74a2.238,2.238,0,0,0,0,3.16l.4.4L22.628,13.524A9.491,9.491,0,1,0,36.05,26.946L60.131,2.865l.4.4a2.212,2.212,0,0,0,1.58.653,2.236,2.236,0,0,0,1.58-.653l4.74-4.735a4.438,4.438,0,0,0,1.307-3.16,4.443,4.443,0,0,0-1.312-3.16Zm-7.895-4.74-6.32,6.32L51.84-8.58l6.315-6.315Zm-4.74,7.9L62.1-10.947,64.469-8.58,58.16-2.266ZM52.633-17.268a2.29,2.29,0,0,1,3.16,0l.787.787-6.32,6.32-2.367-2.367ZM34.47,25.371A7.256,7.256,0,1,1,24.208,15.109L48.289-8.972,50.656-6.6,48.289-4.238a2.212,2.212,0,0,0-.653,1.58,2.236,2.236,0,0,0,.653,1.58l.4.4L35.934,12.061a3.913,3.913,0,0,0-4.623.676L28.944,15.1a3.908,3.908,0,0,0,5.527,5.527l2.367-2.367a3.913,3.913,0,0,0,.676-4.623L50.26.888l.4.4a2.223,2.223,0,0,0,1.58.653,2.223,2.223,0,0,0,1.58-.653l2.367-2.367,2.367,2.367Zm15.4-28.034L52.236-5.03,54.6-2.663,52.236-.3ZM35.75,15.5a1.658,1.658,0,0,1-.492,1.184L32.891,19.05a1.674,1.674,0,0,1-2.367-2.367l2.367-2.367a1.717,1.717,0,0,1,2.367,0A1.648,1.648,0,0,1,35.75,15.5ZM66.842-3.059l-4.735,4.74L59.74-.686,66.055-7l.787.787a2.212,2.212,0,0,1,.653,1.58,2.188,2.188,0,0,1-.653,1.575Z" transform="translate(-19.848 20.154)" fill="#46bbc5"/>
</svg>
