<svg xmlns="http://www.w3.org/2000/svg" width="65" height="64.053" viewBox="0 0 65 64.053">
  <g id="Group_894" data-name="Group 894" transform="translate(-70.001 -0.097)">
    <path id="Path_2388" data-name="Path 2388" d="M134.717,62.44,121.808,49.721v-27.8a3.013,3.013,0,0,0,1.779-1.624,2.948,2.948,0,0,0,0-2.39,3.012,3.012,0,0,0-1.779-1.624V11.1a2.981,2.981,0,0,0-.893-2.123,3.071,3.071,0,0,0-2.155-.879h-8.127a3.071,3.071,0,0,0-2.155.879,2.982,2.982,0,0,0-.892,2.123v5.189a3.013,3.013,0,0,0-1.779,1.624,2.948,2.948,0,0,0,0,2.39,3.012,3.012,0,0,0,1.779,1.624V35.707l-4.063-4v-10.6a2.981,2.981,0,0,0-.893-2.123,3.071,3.071,0,0,0-2.155-.879H89.722l-6.386-6.292h0A11.522,11.522,0,0,0,80.128,3,10.077,10.077,0,0,0,76.11.286a4.451,4.451,0,0,0-2.5-.022,4.4,4.4,0,0,0-2.1,1.323c-3.592,3.537.192,7.264,1.436,8.491a11.734,11.734,0,0,0,8.24,3.182c.292,0,.528-.01.725-.023L86.85,18.1H84.223a3.071,3.071,0,0,0-2.155.879,2.982,2.982,0,0,0-.892,2.123v40.04a2.982,2.982,0,0,0,.892,2.123,3.072,3.072,0,0,0,2.155.88h16.253a3.071,3.071,0,0,0,2.155-.88,2.982,2.982,0,0,0,.893-2.123V34.534l4.063,4v18.6a6.989,6.989,0,0,0,3.555,6.068,7.2,7.2,0,0,0,7.111,0,6.989,6.989,0,0,0,3.555-6.068V52.552l11.471,11.3a1.026,1.026,0,0,0,1.424-.012.991.991,0,0,0,.013-1.4ZM74.383,8.662C71.4,5.725,71.654,4.275,72.947,3a2.639,2.639,0,0,1,1.871-.912,2.462,2.462,0,0,1,.711.113,8.376,8.376,0,0,1,3.162,2.215,9.54,9.54,0,0,1,2.63,6.838,9.982,9.982,0,0,1-6.939-2.592Zm27.109,52.485a.994.994,0,0,1-.3.708,1.024,1.024,0,0,1-.718.293H84.223a1.009,1.009,0,0,1-1.016-1V21.107a1.009,1.009,0,0,1,1.016-1h16.253a1.023,1.023,0,0,1,.718.293.994.994,0,0,1,.3.708Zm12.19-32.032v9.009h-4.063V22.108h10.158v6.006H114.7A1.009,1.009,0,0,0,113.682,29.115Zm2.032,1h4.063v20.02h-4.063ZM119.776,11.1V16.1h-2.032V10.1h1.016a1.023,1.023,0,0,1,.718.293A.994.994,0,0,1,119.776,11.1ZM113.682,16.1V10.1h2.032V16.1ZM109.618,11.1a1.009,1.009,0,0,1,1.016-1h1.016V16.1h-2.032ZM108.6,18.1h12.19a1,1,0,1,1,0,2H108.6a1,1,0,1,1,0-2ZM114.7,62.148a5.127,5.127,0,0,1-3.59-1.468,4.977,4.977,0,0,1-1.489-3.537V40.126h4.063V51.137a.994.994,0,0,0,.3.708,1.024,1.024,0,0,0,.718.293h5.079v5.005a4.977,4.977,0,0,1-1.489,3.537A5.127,5.127,0,0,1,114.7,62.148Z" fill="#49bcc6"/>
    <path id="Path_2389" data-name="Path 2389" d="M252.449,192.5h-6.385A1.064,1.064,0,0,0,245,193.564V212.72a1.064,1.064,0,0,0,1.064,1.064h6.385a1.064,1.064,0,0,0,1.064-1.064V193.564a1.064,1.064,0,0,0-1.064-1.064Zm-1.064,19.155h-4.257V194.628h4.257Z" transform="translate(-154.821 -171.024)" fill="#49bcc6"/>
    <path id="Path_2390" data-name="Path 2390" d="M252.449,455h-6.385A1.064,1.064,0,0,0,245,456.064v6.385a1.064,1.064,0,0,0,1.064,1.064h6.385a1.064,1.064,0,0,0,1.064-1.064v-6.385A1.064,1.064,0,0,0,252.449,455Zm-1.064,6.385h-4.257v-4.257h4.257Z" transform="translate(-154.821 -403.621)" fill="#49bcc6"/>
    <path id="Path_2391" data-name="Path 2391" d="M252.449,385h-6.385A1.064,1.064,0,0,0,245,386.064v4.257a1.064,1.064,0,0,0,1.064,1.064h6.385a1.064,1.064,0,0,0,1.064-1.064v-4.257A1.064,1.064,0,0,0,252.449,385Zm-1.064,4.257h-4.257v-2.128h4.257Z" transform="translate(-154.821 -341.158)" fill="#49bcc6"/>
    <path id="Path_2392" data-name="Path 2392" d="M210,218.75h2.128v2.128H210Z" transform="translate(-123.771 -193.69)" fill="#49bcc6"/>
    <path id="Path_2393" data-name="Path 2393" d="M210,271.25h2.128v2.128H210Z" transform="translate(-123.771 -240.197)" fill="#49bcc6"/>
    <path id="Path_2394" data-name="Path 2394" d="M210,323.75h2.128v2.128H210Z" transform="translate(-123.771 -286.703)" fill="#49bcc6"/>
    <path id="Path_2395" data-name="Path 2395" d="M210,402.5h2.128v2.128H210Z" transform="translate(-123.771 -356.462)" fill="#49bcc6"/>
    <path id="Path_2396" data-name="Path 2396" d="M210,481.25h2.128v2.128H210Z" transform="translate(-123.771 -426.678)" fill="#49bcc6"/>
  </g>
</svg>
