<svg xmlns="http://www.w3.org/2000/svg" width="45" height="68.773" viewBox="0 0 45 68.773">
  <path id="Path_2412" data-name="Path 2412" d="M232.151,54.127V62.77A5.73,5.73,0,0,1,226.42,68.5H212.809a1.146,1.146,0,1,1,0-2.292H226.42a3.438,3.438,0,0,0,3.439-3.438V54.127a1.146,1.146,0,1,1,2.292,0ZM216.1,71.8a1.146,1.146,0,0,0-1.146,1.146,2.292,2.292,0,0,1-2.292,2.292H209.8a2.292,2.292,0,0,1-2.292-2.292V67.355a1.146,1.146,0,0,0-1.146-1.146H196.046a3.438,3.438,0,0,1-3.438-3.438V23.226a3.438,3.438,0,0,1,3.438-3.439h30.375a3.438,3.438,0,0,1,3.439,3.439v3.535a1.146,1.146,0,1,0,2.292,0V23.226a5.73,5.73,0,0,0-5.731-5.731H196.046a5.73,5.73,0,0,0-5.731,5.731V62.771a5.73,5.73,0,0,0,5.731,5.731h9.17v4.441a4.584,4.584,0,0,0,4.585,4.585h.286v7.594a1.146,1.146,0,1,0,2.292,0V77.528h.287a4.584,4.584,0,0,0,4.585-4.585A1.146,1.146,0,0,0,216.1,71.8ZM200.917,25.375h20.632a2.292,2.292,0,0,1,2.292,2.292,1.146,1.146,0,1,0,2.292,0,4.584,4.584,0,0,0-4.585-4.585H200.917a4.584,4.584,0,0,0-4.585,4.585V43a4.584,4.584,0,0,0,4.585,4.585h15a1.146,1.146,0,1,0,0-2.292h-15A2.292,2.292,0,0,1,198.625,43V27.667a2.292,2.292,0,0,1,2.292-2.292ZM208.94,54.46h4.585a2.292,2.292,0,0,1,2.292,2.292,1.146,1.146,0,1,0,2.292,0,4.584,4.584,0,0,0-4.585-4.585H208.94a4.585,4.585,0,1,0,0,9.17h4.585a1.146,1.146,0,0,0,0-2.292H208.94a2.292,2.292,0,1,1,0-4.585Zm18.2-4.012a8.167,8.167,0,0,1-6.708-12.812l3.126-4.5a4.368,4.368,0,0,1,7.175,0l3.12,4.5a8.172,8.172,0,0,1-6.713,12.816Zm4.824-11.5-3.12-4.5h0a2.07,2.07,0,0,0-3.407,0l-3.12,4.5h0a5.874,5.874,0,1,0,9.649,0Z" transform="translate(-190.315 -17.495)" fill="#49bcc6"/>
</svg>
