<svg xmlns="http://www.w3.org/2000/svg" width="56" height="48.226" viewBox="0 0 56 48.226">
  <path id="Path_2342" data-name="Path 2342" d="M163.178,106.4c-6.449,0-14.778,5.735-14.778,17.111,0,6.348,4.013,12.286,9.309,17.524A96.855,96.855,0,0,0,175.6,154.4a1.553,1.553,0,0,0,1.6,0,96.846,96.846,0,0,0,17.889-13.368c5.3-5.238,9.309-11.176,9.309-17.524,0-11.376-8.329-17.111-14.778-17.111a16.013,16.013,0,0,0-13.222,6.733,16.013,16.013,0,0,0-13.222-6.733Zm0,3.111c6.3,0,9.721,3.417,11.885,7.024a1.556,1.556,0,0,0,2.674,0c2.165-3.607,5.59-7.024,11.885-7.024,4.6,0,11.667,4.127,11.667,14a13.048,13.048,0,0,1-.632,3.889H182.622a1.556,1.556,0,0,0-1.41.9L179,133.185l-4.23-13.271a1.549,1.549,0,0,0-2.941-.048l-2.747,7.535h-7.462a1.556,1.556,0,1,0,0,3.111h8.555a1.555,1.555,0,0,0,1.458-1.045l1.555-4.253,4.059,12.76a1.555,1.555,0,0,0,2.892.17l3.476-7.632h15.725a35,35,0,0,1-6.441,8.313A92.326,92.326,0,0,1,176.4,151.2a92.294,92.294,0,0,1-16.5-12.371c-5.009-4.954-8.385-10.315-8.385-15.312,0-9.874,7.069-14,11.667-14Z" transform="translate(-148.4 -106.4)" fill="#46bbc5"/>
</svg>
