<svg xmlns="http://www.w3.org/2000/svg" width="57" height="56.426" viewBox="0 0 57 56.426">
  <g id="Group_875" data-name="Group 875" transform="translate(-94.163 -98.508)">
    <path id="Path_2358" data-name="Path 2358" d="M143.01,98.508h-40.7a8.161,8.161,0,0,0-8.151,8.152v40.122a8.161,8.161,0,0,0,8.151,8.153h40.7a8.159,8.159,0,0,0,8.153-8.153V106.66a8.159,8.159,0,0,0-8.153-8.152Zm5.761,48.27a5.767,5.767,0,0,1-5.761,5.761h-40.7a5.766,5.766,0,0,1-5.76-5.761V106.656a5.766,5.766,0,0,1,5.76-5.761h40.7a5.767,5.767,0,0,1,5.761,5.761Z" transform="translate(0)" fill="#68c7cf"/>
    <path id="Path_2359" data-name="Path 2359" d="M168.485,128.2H130.9a4.741,4.741,0,0,0-4.736,4.735v11.612a4.74,4.74,0,0,0,4.736,4.734H168.49a4.738,4.738,0,0,0,4.733-4.734V132.935a4.74,4.74,0,0,0-4.737-4.735Zm-21.2,18.7-3.743-4.114a.966.966,0,0,1,.761-1.616.949.949,0,0,1,.668.316L149.9,146.9Zm23.54-2.345a2.346,2.346,0,0,1-2.342,2.345H153.132l-6.38-7.017a3.357,3.357,0,0,0-4.974,4.51l2.279,2.506H130.9a2.348,2.348,0,0,1-2.345-2.345V132.935a2.349,2.349,0,0,1,2.345-2.345H168.49a2.346,2.346,0,0,1,2.342,2.345Z" transform="translate(-27.024 -25.077)" fill="#68c7cf"/>
    <path id="Path_2360" data-name="Path 2360" d="M172.5,291.007a18.636,18.636,0,0,1-4.636-9.458l-.654-3.808a3.078,3.078,0,0,0-4.573-2.142l-1.713.992h0a8.423,8.423,0,0,0-1.632,13.36l2.052,1.976h0a5.985,5.985,0,0,1,1.418,2.1,7.4,7.4,0,0,0,6.836,4.624c.217,0,.437-.01.656-.03l.835-.076h0a3.817,3.817,0,0,0,2.475-6.38Zm-.432,4.248a1.415,1.415,0,0,1-1.2.906l-.835.076h0a4.99,4.99,0,0,1-5.055-3.1A8.355,8.355,0,0,0,163,290.2l-2.049-1.976a6.032,6.032,0,0,1,1.166-9.572l1.712-.99a.685.685,0,0,1,1.019.476l.654,3.808a21.034,21.034,0,0,0,5.231,10.669l1.057,1.155h0a1.416,1.416,0,0,1,.273,1.483Z" transform="translate(-52.824 -149.216)" fill="#68c7cf"/>
    <path id="Path_2361" data-name="Path 2361" d="M297.143,276.577l-1.713-.99a3.078,3.078,0,0,0-4.573,2.141L290.64,279c-.136.808-.287,1.674-.435,2.533A18.64,18.64,0,0,1,285.568,291l-1.055,1.154a3.817,3.817,0,0,0,2.468,6.383l.832.075c.22.021.44.03.657.03h0a7.4,7.4,0,0,0,6.836-4.624,5.987,5.987,0,0,1,1.414-2.1l.339-.327,1.71-1.652a8.425,8.425,0,0,0-1.632-13.362Zm-.036,11.641-1.711,1.648-.34.327a8.374,8.374,0,0,0-1.975,2.936,4.987,4.987,0,0,1-5.054,3.1l-.834-.076h0a1.427,1.427,0,0,1-.922-2.386l1.055-1.155h0a21.008,21.008,0,0,0,5.23-10.668c.148-.858.3-1.726.435-2.534l.219-1.274h0a.68.68,0,0,1,1.02-.478l1.713.99h0a6.033,6.033,0,0,1,1.163,9.571Z" transform="translate(-159.914 -149.206)" fill="#68c7cf"/>
    <path id="Path_2362" data-name="Path 2362" d="M270.564,156.51a1.2,1.2,0,0,0-1.2,1.2v.544a1.2,1.2,0,1,0,2.391,0v-.544a1.194,1.194,0,0,0-1.2-1.2Z" transform="translate(-147.972 -48.986)" fill="#68c7cf"/>
    <path id="Path_2363" data-name="Path 2363" d="M315.241,168.988a1.2,1.2,0,0,0-1.632.435l-.272.474h0a1.2,1.2,0,1,0,2.069,1.2l.272-.474a1.2,1.2,0,0,0-.437-1.633Z" transform="translate(-184.961 -59.389)" fill="#68c7cf"/>
    <path id="Path_2364" data-name="Path 2364" d="M346.157,202.377l-.474.272h0a1.2,1.2,0,1,0,1.194,2.07l.475-.272a1.2,1.2,0,1,0-1.2-2.07Z" transform="translate(-211.892 -87.577)" fill="#68c7cf"/>
    <path id="Path_2365" data-name="Path 2365" d="M192.568,202.425l-.474-.272h0a1.2,1.2,0,0,0-1.194,2.072l.474.272a1.2,1.2,0,0,0,1.194-2.072Z" transform="translate(-81.202 -87.403)" fill="#68c7cf"/>
    <path id="Path_2366" data-name="Path 2366" d="M225.885,169.15a1.2,1.2,0,1,0-2.069,1.2l.272.474h0a1.2,1.2,0,1,0,2.069-1.2Z" transform="translate(-109.355 -59.143)" fill="#68c7cf"/>
  </g>
</svg>
