<svg xmlns="http://www.w3.org/2000/svg" width="61.252" height="60.916" viewBox="0 0 61.252 60.916">
  <g id="Group_893" data-name="Group 893" transform="translate(-86.059 -17.496)">
    <path id="Path_2374" data-name="Path 2374" d="M509.235,332.795a1.015,1.015,0,1,0,0,1.436A1.017,1.017,0,0,0,509.235,332.795Z" transform="translate(-372.542 -278.451)" fill="#49bcc6"/>
    <path id="Path_2375" data-name="Path 2375" d="M542.8,281.736a1.016,1.016,0,1,0,0-1.436A1.017,1.017,0,0,0,542.8,281.736Z" transform="translate(-403.479 -232.047)" fill="#49bcc6"/>
    <path id="Path_2376" data-name="Path 2376" d="M455.295,227.8a1.015,1.015,0,1,0,1.436,0A1.017,1.017,0,0,0,455.295,227.8Z" transform="translate(-326.13 -185.636)" fill="#49bcc6"/>
    <path id="Path_2377" data-name="Path 2377" d="M464.045,140.3a1.016,1.016,0,1,0,1.436,0A1.017,1.017,0,0,0,464.045,140.3Z" transform="translate(-333.864 -108.289)" fill="#49bcc6"/>
    <path id="Path_2378" data-name="Path 2378" d="M525.3,202.986a1.015,1.015,0,1,0,0-1.436A1.017,1.017,0,0,0,525.3,202.986Z" transform="translate(-388.009 -162.435)" fill="#49bcc6"/>
    <path id="Path_2379" data-name="Path 2379" d="M429.045,297.8a1.016,1.016,0,1,0,1.436,0A1.017,1.017,0,0,0,429.045,297.8Z" transform="translate(-302.926 -247.514)" fill="#49bcc6"/>
    <path id="Path_2380" data-name="Path 2380" d="M131.14,25.645c-3.94-.97-5.746,1.972-6.288,3.675-.523,1.644-1.253,3.672-1.891,5.97l-2.132-2.132V20.542a3.046,3.046,0,0,0-3.046-3.046h-2.031a3.046,3.046,0,0,0-3.046,3.046V32.989l-2.288,2.286c-.609-2.17-1.32-4.174-1.908-5.964h0a6.7,6.7,0,0,0-.818-1.692,1,1,0,0,0,.869-.986,1.015,1.015,0,0,0-1.015-1.015h-2.122a6.1,6.1,0,0,0-4.985-4.985V18.511a1.015,1.015,0,1,0-2.031,0v2.122a6.1,6.1,0,0,0-4.985,4.985H91.3a1.015,1.015,0,1,0,0,2.031h2.122a6.062,6.062,0,0,0,1.035,2.5C89.911,34.577,85.1,43.372,86.226,60.63c.126,1.523,1.375,14.916,6.535,17.378a4.654,4.654,0,0,0,4.818-.661,20.913,20.913,0,0,0,4.254-4.653c2.152-2.843,4.59-6.055,8.057-7.191A4.5,4.5,0,0,0,112.5,63c1.764-3.655,1.379-10.965.054-18.377l4.127-4.127,4.125,4.126c-1.455,7.97-1.891,16.142.777,19.493h0a6.1,6.1,0,0,0-2.78,4.142h-2.122a1.015,1.015,0,1,0,0,2.031h2.122a6.1,6.1,0,0,0,4.985,4.985V77.4a1.015,1.015,0,0,0,2.031,0V75.275a6.1,6.1,0,0,0,4.695-3.9c.341.437.678.877,1.006,1.31a21.008,21.008,0,0,0,4.264,4.658,4.662,4.662,0,0,0,4.818.662c5.16-2.461,6.408-15.859,6.535-17.394,2.066-31.473-15.329-34.855-16-34.97ZM99.425,22.573a4.061,4.061,0,1,1-2.872,1.189A4.063,4.063,0,0,1,99.425,22.573ZM88.213,51.765c.7-10.854,4.271-16.869,7.682-20.176h0a6.049,6.049,0,0,0,2.515,1.045v2.122a1.015,1.015,0,0,0,2.031,0V32.634a6.1,6.1,0,0,0,4.909-4.6,3.778,3.778,0,0,1,1.246,1.946,90.206,90.206,0,0,1,4.837,21.411c-.253,1.718-.833,3.788-2.171,4.227-4.071,1.332-6.713,4.818-9.043,7.895h0a20.113,20.113,0,0,1-3.713,4.163,2.972,2.972,0,0,1-3.091.253c-3.984-2.255-5.158-14.405-5.2-16.16Zm22.464,10.356a2.543,2.543,0,0,1-1.415,1.455c-4.071,1.332-6.713,4.818-9.043,7.894h0a19.8,19.8,0,0,1-3.781,4.2,2.727,2.727,0,0,1-2.8.508c-2.492-1.188-4.007-6.751-4.786-11.215a9.443,9.443,0,0,0,3.567,4.724,5.022,5.022,0,0,0,5.166-.3,20.933,20.933,0,0,0,4.254-4.653c2.152-2.843,4.59-6.056,8.057-7.192h0a3.93,3.93,0,0,0,1.768-1.211,14.512,14.512,0,0,1-.987,5.791Zm10.6-19.9L117.4,38.346h0a1.016,1.016,0,0,0-1.436,0L112.1,42.215c-.324-1.582-.685-3.147-1.072-4.67l3.417-3.415a1.016,1.016,0,0,0,.3-.718V20.542a1.015,1.015,0,0,1,1.015-1.015h2.031a1.015,1.015,0,0,1,1.015,1.015V33.579a1.015,1.015,0,0,0,.3.718l3.26,3.26c-.382,1.5-.747,3.063-1.079,4.664Zm3.528,31.115a4.061,4.061,0,1,1,2.872-1.189A4.062,4.062,0,0,1,124.807,73.337Zm14.924,2.843a2.725,2.725,0,0,1-2.8-.508,19.876,19.876,0,0,1-3.791-4.209c-.292-.386-.6-.778-.9-1.169h.688a1.015,1.015,0,1,0,0-2.031h-2.122a6.1,6.1,0,0,0-4.985-4.987V61.154a1.015,1.015,0,1,0-2.031,0v2.122c-.054.009-.11.015-.164.025-1.307-.914-1.886-3.5-1.929-6.976a3.95,3.95,0,0,0,1.775,1.218c3.468,1.136,5.907,4.354,8.058,7.192a20.7,20.7,0,0,0,4.323,4.7,4.976,4.976,0,0,0,5.1.259,9.442,9.442,0,0,0,3.565-4.733c-.779,4.47-2.294,10.031-4.784,11.223Zm5.42-24.412c-.039,1.756-1.218,13.91-5.2,16.159h0a2.927,2.927,0,0,1-3.023-.211,19.788,19.788,0,0,1-3.78-4.2c-2.335-3.075-4.975-6.562-9.043-7.895-1.346-.441-1.929-2.528-2.176-4.251a99.568,99.568,0,0,1,4.842-21.387,3.062,3.062,0,0,1,3.946-2.347c.6.109,13.1,2.668,14.436,24.135Z" transform="translate(0)" fill="#49bcc6"/>
    <path id="Path_2381" data-name="Path 2381" d="M194.236,334.236a1.015,1.015,0,1,0-1.436,0A1.017,1.017,0,0,0,194.236,334.236Z" transform="translate(-94.093 -278.456)" fill="#49bcc6"/>
    <path id="Path_2382" data-name="Path 2382" d="M149.045,385.3a1.015,1.015,0,1,0,1.436,0A1.017,1.017,0,0,0,149.045,385.3Z" transform="translate(-55.415 -324.861)" fill="#49bcc6"/>
    <path id="Path_2383" data-name="Path 2383" d="M141.736,281.736a1.015,1.015,0,1,0-1.436,0A1.017,1.017,0,0,0,141.736,281.736Z" transform="translate(-47.684 -232.048)" fill="#49bcc6"/>
    <path id="Path_2384" data-name="Path 2384" d="M237.986,220.486a1.015,1.015,0,1,0-1.436,0A1.017,1.017,0,0,0,237.986,220.486Z" transform="translate(-132.766 -177.905)" fill="#49bcc6"/>
    <path id="Path_2385" data-name="Path 2385" d="M167.986,202.986a1.015,1.015,0,1,0-1.436,0A1.017,1.017,0,0,0,167.986,202.986Z" transform="translate(-70.888 -162.435)" fill="#49bcc6"/>
    <path id="Path_2386" data-name="Path 2386" d="M254.047,290.486a1.016,1.016,0,1,0,0-1.436A1.017,1.017,0,0,0,254.047,290.486Z" transform="translate(-148.233 -239.782)" fill="#49bcc6"/>
    <path id="Path_2387" data-name="Path 2387" d="M525.295,394.047a1.015,1.015,0,1,0,1.436,0A1.017,1.017,0,0,0,525.295,394.047Z" transform="translate(-388.007 -332.596)" fill="#49bcc6"/>
  </g>
</svg>
