<svg xmlns="http://www.w3.org/2000/svg" width="64.772" height="51.822" viewBox="0 0 64.772 51.822">
  <path id="Path_2341" data-name="Path 2341" d="M134.456,105.583a8.1,8.1,0,0,0,8.1-8.1V95.867h2.159a1.079,1.079,0,0,0,1.08-1.08V90.642a10.8,10.8,0,1,0-8.636,0v4.146a1.079,1.079,0,0,0,1.08,1.08h2.159v1.619a5.937,5.937,0,0,1-11.875,0V78.055a8.1,8.1,0,0,0-16.193,0v1.619H88.577a1.08,1.08,0,0,0-1.08,1.08v30.227a1.079,1.079,0,0,0,1.08,1.08h29.147a1.079,1.079,0,0,0,1.08-1.08V78.055a1.619,1.619,0,1,1,3.239,0v29.686a7.556,7.556,0,0,0,6.477,7.47v1.166a1.079,1.079,0,0,0,1.08,1.08h2.936c1.555,2.613,5.246,4.318,9.478,4.318,5.754,0,10.256-3.087,10.256-7.017s-4.5-7.017-10.256-7.017a11.94,11.94,0,0,0-8.636,3.239H129.6a1.08,1.08,0,0,0-1.08,1.08v.972a5.4,5.4,0,0,1-4.318-5.29V78.055a3.778,3.778,0,1,0-7.557,0v1.619h-2.159V78.055a5.937,5.937,0,0,1,11.875,0V97.486a8.1,8.1,0,0,0,8.1,8.1Zm-1.619-24.829a8.637,8.637,0,1,1,2.53,6.107A8.634,8.634,0,0,1,132.837,80.754Zm6.477,10.579a10.91,10.91,0,0,0,4.318,0v2.375h-4.318Zm-8.636,21.806h3.174a1.079,1.079,0,0,0,.842-.41c1.382-1.749,4.232-2.828,7.319-2.828,4.394,0,8.1,2.224,8.1,4.858s-3.7,4.858-8.1,4.858c-3.67,0-6.887-1.511-7.837-3.67a1.081,1.081,0,0,0-.983-.648h-2.515ZM97.213,81.834v2.159H89.656V81.834Zm0,10.8H93.974V90.47h3.239Zm0,8.636H93.974V99.106h3.239Zm2.159-15.113h17.272v19.432H99.372Zm-2.159,2.159H92.894a1.08,1.08,0,0,0-1.08,1.08v4.318a1.079,1.079,0,0,0,1.08,1.08h4.318v2.159H92.894a1.08,1.08,0,0,0-1.08,1.08v4.318a1.079,1.079,0,0,0,1.08,1.08h4.318v2.159H89.656V86.152h7.557Zm-7.557,19.432h7.557V109.9H89.656Zm9.716,2.159v-2.159h17.272V109.9Zm17.272-25.909H99.372V81.834h17.272Z" transform="translate(-87.497 -69.953)" fill="#46bbc5"/>
</svg>
