<svg xmlns="http://www.w3.org/2000/svg" width="57.5" height="59.483" viewBox="0 0 57.5 59.483">
  <g id="Group_895" data-name="Group 895" transform="translate(-39.5 25.502)">
    <path id="Path_2397" data-name="Path 2397" d="M223.25,140.75H229.2v1.983H223.25Z" transform="translate(-162.931 -147.416)" fill="#49bcc6"/>
    <path id="Path_2398" data-name="Path 2398" d="M188.25,175.75h9.914v1.983H188.25Z" transform="translate(-131.897 -178.45)" fill="#49bcc6"/>
    <path id="Path_2399" data-name="Path 2399" d="M188.25,140.75h1.983v1.983H188.25Z" transform="translate(-131.897 -147.416)" fill="#49bcc6"/>
    <path id="Path_2400" data-name="Path 2400" d="M188.25,210.75h9.914v1.983H188.25Z" transform="translate(-131.897 -209.485)" fill="#49bcc6"/>
    <path id="Path_2401" data-name="Path 2401" d="M144.5,45.491V77.216h1.983V71.267h31.724v7.4l-1.541,1.026,1.1,1.65,1.983-1.322a.992.992,0,0,0,.441-.824V45.491a.991.991,0,0,0-.991-.991H145.491a.991.991,0,0,0-.991.991Zm1.983,23.793V51.44h31.724V69.284Zm31.724-22.8v2.974H146.483V46.483Z" transform="translate(-93.103 -62.071)" fill="#49bcc6"/>
    <path id="Path_2402" data-name="Path 2402" d="M328.3,123.246a3.075,3.075,0,0,0-2.188.906l-.666.667-.666-.666h0a3.094,3.094,0,0,0-4.376,4.376l4.341,4.341a.992.992,0,0,0,1.4,0l4.341-4.341a3.094,3.094,0,0,0-2.188-5.282Zm.786,3.88-3.64,3.641-3.64-3.64h0a1.112,1.112,0,0,1,1.572-1.572l1.367,1.367a.992.992,0,0,0,1.4,0l1.367-1.367a1.112,1.112,0,0,1,1.572,1.572Z" transform="translate(-248.276 -131.895)" fill="#49bcc6"/>
    <path id="Path_2403" data-name="Path 2403" d="M310.75,228.25h8.922v1.983H310.75Z" transform="translate(-240.517 -225.002)" fill="#49bcc6"/>
    <path id="Path_2404" data-name="Path 2404" d="M407,228.25h1.983v1.983H407Z" transform="translate(-325.862 -225.002)" fill="#49bcc6"/>
    <path id="Path_2405" data-name="Path 2405" d="M57,27h1.983V47.819H57Z" transform="translate(-15.517 -46.553)" fill="#49bcc6"/>
    <path id="Path_2406" data-name="Path 2406" d="M57,228.25h1.983v1.983H57Z" transform="translate(-15.517 -225.002)" fill="#49bcc6"/>
    <path id="Path_2407" data-name="Path 2407" d="M467.431,286.871a4.962,4.962,0,0,1-4.957,4.957H459.5v1.983h2.974a6.948,6.948,0,0,0,6.94-6.94V272h-1.983Z" transform="translate(-372.414 -263.795)" fill="#49bcc6"/>
    <path id="Path_2408" data-name="Path 2408" d="M529.5,237h1.983v1.983H529.5Z" transform="translate(-434.483 -232.76)" fill="#49bcc6"/>
    <path id="Path_2409" data-name="Path 2409" d="M293.25,9.5h1.983v1.983H293.25Z" transform="translate(-225 -31.036)" fill="#49bcc6"/>
    <path id="Path_2410" data-name="Path 2410" d="M362.432,417.95c0-2.327-2.93-5.324-3.264-5.658a.992.992,0,0,0-1.4,0c-.334.334-3.264,3.331-3.264,5.658a3.966,3.966,0,1,0,7.931,0Zm-3.966,1.983a1.982,1.982,0,0,1-1.983-1.983c0-.866,1.008-2.36,1.983-3.495.975,1.134,1.983,2.629,1.983,3.495a1.983,1.983,0,0,1-1.983,1.983Z" transform="translate(-279.311 -387.934)" fill="#49bcc6"/>
    <path id="Path_2411" data-name="Path 2411" d="M50.405,32.99V32h2.743a19.879,19.879,0,0,0,8.63,1.983h7.463A2.964,2.964,0,0,0,72,29.9a2.936,2.936,0,0,0,1.8-4.317,2.915,2.915,0,0,0,1.206-3.5h4.148a2.974,2.974,0,1,0,0-5.948H66.178a6.013,6.013,0,0,0-11.121-1.96l-1.64,2.875a2.132,2.132,0,0,1-1.848,1.068H50.405v-.991a.991.991,0,0,0-.991-.991H47.431V-20.545a2.974,2.974,0,0,1,.871-2.1,2.975,2.975,0,0,1,2.1-.871H88.078a2.974,2.974,0,0,1,2.1.871,2.975,2.975,0,0,1,.871,2.1V21.093a2.974,2.974,0,0,1-2.974,2.974H83.121V26.05h4.957a4.962,4.962,0,0,0,4.957-4.957V-20.545a4.966,4.966,0,0,0-1.453-3.5,4.966,4.966,0,0,0-3.5-1.453H50.405a4.966,4.966,0,0,0-3.5,1.453,4.965,4.965,0,0,0-1.453,3.5V16.136H39.5v1.983h8.922V32H39.5v1.983h9.914a.991.991,0,0,0,.991-.991ZM51.569,20.1a4.119,4.119,0,0,0,3.569-2.071l1.641-2.875a4.014,4.014,0,0,1,3.54-1.994,3.965,3.965,0,0,1,3.825,2.974H61.31v1.983H79.155a.991.991,0,0,1,0,1.983H66.267v1.983h5.948a.991.991,0,0,1,0,1.983h-6.94V26.05h5.948a.991.991,0,1,1,0,1.983h-6.94v1.983h4.957a.991.991,0,0,1,0,1.983H61.778a17.866,17.866,0,0,1-7.956-1.884.991.991,0,0,0-.443-.1H50.4V20.1Z" fill="#49bcc6"/>
  </g>
</svg>
