<svg xmlns="http://www.w3.org/2000/svg" width="63" height="23.838" viewBox="0 0 63 23.838">
  <path id="being_sick" d="M41.254,0a12.073,12.073,0,0,0-5.906,1.6L25.823,6.811H18.108A5.135,5.135,0,0,0,13,11.919a5.061,5.061,0,0,0,.106,1.011v.053a4.988,4.988,0,0,0,3.937,3.937c.013.007.04-.007.053,0a5.538,5.538,0,0,0,1.011.106h7.715l9.684,5.268v-.053a11.884,11.884,0,0,0,5.747,1.6H64.081A11.919,11.919,0,1,0,64.081,0Zm0,3.405h.692V6.811h3.405V3.405h3.405V6.811h3.405V3.405h3.405V6.811h3.405V3.405h3.405V6.811h3.405V3.565a8.52,8.52,0,0,1-1.7,16.867H41.254a8.578,8.578,0,0,1-4.1-1.171L27.1,13.834a1.563,1.563,0,0,0-.479-.16V11.919H16.405a1.7,1.7,0,0,1,1.7-1.7H26.3A1.765,1.765,0,0,0,27.1,10L37,4.576A8.574,8.574,0,0,1,41.254,3.405ZM30.027,10.216v3.405H65.784V10.216Z" transform="translate(-13)" fill="#46bbc5"/>
</svg>
