<svg xmlns="http://www.w3.org/2000/svg" width="58.452" height="40.312" viewBox="0 0 58.452 40.312">
  <g id="Group_869" data-name="Group 869" transform="translate(-96.249 -105)">
    <path id="Path_2343" data-name="Path 2343" d="M153.694,437.5H97.258a1.008,1.008,0,1,0,0,2.016h56.436a1.008,1.008,0,1,0,0-2.016Z" transform="translate(-0.001 -294.204)" fill="#46bbc5"/>
    <path id="Path_2344" data-name="Path 2344" d="M97.258,107.016h56.436a1.008,1.008,0,1,0,0-2.016H97.258a1.008,1.008,0,1,0,0,2.016Z" transform="translate(-0.001)" fill="#46bbc5"/>
    <path id="Path_2345" data-name="Path 2345" d="M153.694,140H97.258a1.008,1.008,0,1,0,0,2.016h12.379a7.526,7.526,0,0,1,6.419,3.558,9.531,9.531,0,0,0,8.127,4.5h2.587a9.531,9.531,0,0,0,8.127-4.5,7.527,7.527,0,0,1,6.419-3.558h12.379a1.008,1.008,0,0,0,0-2.016Zm-20.506,4.5a7.527,7.527,0,0,1-6.419,3.558h-2.587a7.526,7.526,0,0,1-6.419-3.558,9.612,9.612,0,0,0-2.259-2.489h19.942a9.609,9.609,0,0,0-2.259,2.489Z" transform="translate(-0.001 -30.969)" fill="#46bbc5"/>
    <path id="Path_2346" data-name="Path 2346" d="M153.693,340.562H141.314A7.525,7.525,0,0,1,134.9,337a9.531,9.531,0,0,0-8.127-4.5h-2.587a9.531,9.531,0,0,0-8.127,4.5,7.526,7.526,0,0,1-6.419,3.558H97.257a1.008,1.008,0,1,0,0,2.016h56.436a1.008,1.008,0,0,0,0-2.016Zm-38.189,0a9.61,9.61,0,0,0,2.259-2.489,7.526,7.526,0,0,1,6.419-3.558h2.587a7.525,7.525,0,0,1,6.419,3.558,9.612,9.612,0,0,0,2.259,2.489Z" transform="translate(0 -201.297)" fill="#46bbc5"/>
    <path id="Path_2347" data-name="Path 2347" d="M187.781,334.516a2.016,2.016,0,1,1-2.016-2.016,2.016,2.016,0,0,1,2.016,2.016" transform="translate(-77.423 -201.297)" fill="#46bbc5"/>
    <path id="Path_2348" data-name="Path 2348" d="M240.281,247.016A2.016,2.016,0,1,1,238.266,245a2.016,2.016,0,0,1,2.016,2.016" transform="translate(-123.876 -123.875)" fill="#46bbc5"/>
    <path id="Path_2349" data-name="Path 2349" d="M135.281,290.766a2.016,2.016,0,1,1-2.016-2.016,2.016,2.016,0,0,1,2.016,2.016" transform="translate(-30.97 -162.586)" fill="#46bbc5"/>
    <path id="Path_2350" data-name="Path 2350" d="M467.781,317.016A2.016,2.016,0,1,1,465.766,315a2.016,2.016,0,0,1,2.016,2.016" transform="translate(-325.174 -185.813)" fill="#46bbc5"/>
    <path id="Path_2351" data-name="Path 2351" d="M537.781,177.016A2.016,2.016,0,1,1,535.766,175a2.016,2.016,0,0,1,2.016,2.016" transform="translate(-387.111 -61.938)" fill="#46bbc5"/>
    <path id="Path_2352" data-name="Path 2352" d="M447.879,214.657c-1.2-1.2-3.39-.886-4.988.713a4.9,4.9,0,0,0-1.37,2.444,2.756,2.756,0,0,0,.657,2.544,2.571,2.571,0,0,0,1.86.728,4.571,4.571,0,0,0,3.128-1.44,4.9,4.9,0,0,0,1.37-2.444,2.756,2.756,0,0,0-.657-2.544Zm-1.319,2.148a2.912,2.912,0,0,1-.819,1.414c-.872.871-1.847,1-2.138.712a.828.828,0,0,1-.106-.723,2.912,2.912,0,0,1,.819-1.414,2.6,2.6,0,0,1,1.7-.851.617.617,0,0,1,.441.139.828.828,0,0,1,.106.723Z" transform="translate(-305.444 -96.383)" fill="#46bbc5"/>
    <path id="Path_2353" data-name="Path 2353" d="M529.66,325.374a2.573,2.573,0,0,0,1.86.727,4.566,4.566,0,0,0,3.128-1.44c1.6-1.6,1.911-3.789.713-4.988s-3.39-.886-4.988.713-1.911,3.789-.713,4.988Zm2.138-3.563a2.6,2.6,0,0,1,1.7-.851.618.618,0,0,1,.44.139c.29.29.158,1.267-.713,2.138s-1.846,1-2.138.713-.157-1.267.713-2.138Z" transform="translate(-382.849 -189.305)" fill="#46bbc5"/>
    <path id="Path_2354" data-name="Path 2354" d="M323.062,256.773c0-1.7-1.77-3.023-4.031-3.023S315,255.078,315,256.773s1.77,3.023,4.031,3.023S323.062,258.469,323.062,256.773Zm-6.047,0c0-.411.785-1.008,2.016-1.008s2.016.6,2.016,1.008-.785,1.008-2.016,1.008S317.016,257.184,317.016,256.773Z" transform="translate(-193.556 -131.618)" fill="#46bbc5"/>
    <path id="Path_2355" data-name="Path 2355" d="M140.914,189.128c-1.6-1.6-3.788-1.91-4.988-.713a2.756,2.756,0,0,0-.657,2.545,4.9,4.9,0,0,0,1.37,2.444,4.567,4.567,0,0,0,3.128,1.44,2.571,2.571,0,0,0,1.86-.728,2.756,2.756,0,0,0,.657-2.545,4.9,4.9,0,0,0-1.37-2.444Zm-.713,3.563c-.292.292-1.269.156-2.138-.713a2.913,2.913,0,0,1-.819-1.414.83.83,0,0,1,.106-.724.619.619,0,0,1,.44-.139,2.6,2.6,0,0,1,1.7.851,2.913,2.913,0,0,1,.819,1.414.83.83,0,0,1-.106.723Z" transform="translate(-34.464 -73.165)" fill="#46bbc5"/>
  </g>
</svg>
