<svg xmlns="http://www.w3.org/2000/svg" width="61.252" height="61.376" viewBox="0 0 61.252 61.376">
  <path id="Path_2356" data-name="Path 2356" d="M87.625,77.619a1.02,1.02,0,0,0,1.489,0l12.687-12.7,1.581,1.581a1.083,1.083,0,0,0,.744.306,1.023,1.023,0,0,0,.745-.306l4.222-4.222,3.2,3.213a1.081,1.081,0,0,0,.744.306,1.019,1.019,0,0,0,.744-.306l4.548-4.538,5.976-5.987,5.976-5.976,6.008-6.017,4.783-4.773a1.023,1.023,0,0,0,.306-.745,1.083,1.083,0,0,0-.306-.744l-3.212-3.2,5.68-5.65,3.213,3.182a1.053,1.053,0,1,0,1.489-1.489L135.57,16.876a1.055,1.055,0,1,0-1.489,1.489l3.335,3.325-5.681,5.681-3.213-3.213a1.059,1.059,0,0,0-1.489,0L99.742,51.449a1.02,1.02,0,0,0,0,1.489l3.213,3.213-4.212,4.222h0a1.02,1.02,0,0,0,0,1.489l1.581,1.571-12.7,12.7a1.02,1.02,0,0,0,0,1.489ZM138.9,23.178l3.152,3.162-5.67,5.681-3.152-3.141Zm-11.127,3.213,11.066,11.066L135.58,40.73l-3.967-3.957h0a1.046,1.046,0,1,0-1.479,1.479l3.957,3.967-4.508,4.508-3.957-3.957h0a1.05,1.05,0,1,0-1.489,1.479l4,3.957-4.508,4.508-3.957-3.957a1.079,1.079,0,0,0-.744-.306,1.041,1.041,0,0,0-.744,1.795l3.957,3.957-4.508,4.508-3.957-3.957a1.053,1.053,0,0,0-1.489,1.489L116.1,60.2l-3.06,3.06-3.2-3.2-4.65-4.66-3.2-3.213ZM104.443,57.64,107.6,60.8l-3.478,3.468L102.556,62.7l-1.581-1.571Z" transform="translate(-87.303 -16.566)" fill="#46bbc5"/>
</svg>
