<svg id="Group_854" data-name="Group 854" xmlns="http://www.w3.org/2000/svg" width="48.077" height="48.972" viewBox="0 0 48.077 48.972">
  <path id="Path_2326" data-name="Path 2326" d="M38.545,57.194H49.178c4.279,0,9.169,2.127,9.169,8.487v1.562H49.654C47.953,61.956,44.128,58.724,38.545,57.194Z" transform="translate(-38.545 -47.072)" fill="#38969f" fill-rule="evenodd"/>
  <path id="Path_2327" data-name="Path 2327" d="M49.654,75.873H49.22c-8,0-4.864-13.288-10.675-18.679,5.583,1.53,9.408,4.762,11.109,10.049Z" transform="translate(-38.545 -47.072)" fill="#46bbc5" fill-rule="evenodd"/>
  <path id="Path_2328" data-name="Path 2328" d="M100.664,38.489V49.32c0,4.358-2.088,9.34-8.332,9.34H90.8V49.8C95.988,48.072,99.162,44.176,100.664,38.489Z" transform="translate(-62.523 -38.489)" fill="#00973d" fill-rule="evenodd"/>
  <path id="Path_2329" data-name="Path 2329" d="M75.14,49.8v-.442c0-8.144,13.045-4.954,18.339-10.873-1.5,5.687-4.675,9.583-9.866,11.315Z" transform="translate(-55.338 -38.489)" fill="#a4c422" fill-rule="evenodd"/>
  <path id="Path_2330" data-name="Path 2330" d="M110.6,101.763H99.967c-4.279,0-9.169-2.127-9.169-8.487V91.714h8.694C101.193,97,105.017,100.233,110.6,101.763Z" transform="translate(-62.523 -62.913)" fill="#38969f" fill-rule="evenodd"/>
  <path id="Path_2331" data-name="Path 2331" d="M106.864,75.765h.434c8,0,4.864,13.288,10.675,18.679-5.583-1.53-9.407-4.762-11.109-10.049Z" transform="translate(-69.895 -55.594)" fill="#46bbc5" fill-rule="evenodd"/>
  <path id="Path_2332" data-name="Path 2332" d="M56.908,111.885V101.054c0-4.358,2.088-9.34,8.332-9.34h1.534v8.855C61.583,102.3,58.41,106.2,56.908,111.885Z" transform="translate(-46.971 -62.913)" fill="#00973d" fill-rule="evenodd"/>
  <path id="Path_2333" data-name="Path 2333" d="M75.246,108.079v.442c0,8.144-13.045,4.954-18.338,10.873,1.5-5.687,4.675-9.583,9.866-11.315Z" transform="translate(-46.971 -70.423)" fill="#a4c422" fill-rule="evenodd"/>
</svg>
