<svg xmlns="http://www.w3.org/2000/svg" width="280.4" height="48.972" viewBox="0 0 280.4 48.972">
  <g id="Logo" transform="translate(-102.529 -33.514)">
    <g id="Group_856" data-name="Group 856" transform="translate(19.692 -2.362)">
      <g id="Group_1" data-name="Group 1" transform="translate(82.836 35.876)">
        <g id="Group_854" data-name="Group 854" transform="translate(0 0)">
          <path id="Path_2326" data-name="Path 2326" d="M38.545,57.194H49.178c4.279,0,9.169,2.127,9.169,8.487v1.562H49.654C47.953,61.956,44.128,58.724,38.545,57.194Z" transform="translate(-38.545 -47.072)" fill="#38969f" fill-rule="evenodd"/>
          <path id="Path_2327" data-name="Path 2327" d="M49.654,75.873H49.22c-8,0-4.864-13.288-10.675-18.679,5.583,1.53,9.408,4.762,11.109,10.049Z" transform="translate(-38.545 -47.072)" fill="#46bbc5" fill-rule="evenodd"/>
          <path id="Path_2328" data-name="Path 2328" d="M100.664,38.489V49.32c0,4.358-2.088,9.34-8.332,9.34H90.8V49.8C95.988,48.072,99.162,44.176,100.664,38.489Z" transform="translate(-62.523 -38.489)" fill="#00973d" fill-rule="evenodd"/>
          <path id="Path_2329" data-name="Path 2329" d="M75.14,49.8v-.442c0-8.144,13.045-4.954,18.339-10.873-1.5,5.687-4.675,9.583-9.866,11.315Z" transform="translate(-55.338 -38.489)" fill="#a4c422" fill-rule="evenodd"/>
          <path id="Path_2330" data-name="Path 2330" d="M110.6,101.763H99.967c-4.279,0-9.169-2.127-9.169-8.487V91.714h8.694C101.193,97,105.017,100.233,110.6,101.763Z" transform="translate(-62.523 -62.913)" fill="#38969f" fill-rule="evenodd"/>
          <path id="Path_2331" data-name="Path 2331" d="M106.864,75.765h.434c8,0,4.864,13.288,10.675,18.679-5.583-1.53-9.407-4.762-11.109-10.049Z" transform="translate(-69.895 -55.594)" fill="#46bbc5" fill-rule="evenodd"/>
          <path id="Path_2332" data-name="Path 2332" d="M56.908,111.885V101.054c0-4.358,2.088-9.34,8.332-9.34h1.534v8.855C61.583,102.3,58.41,106.2,56.908,111.885Z" transform="translate(-46.971 -62.913)" fill="#00973d" fill-rule="evenodd"/>
          <path id="Path_2333" data-name="Path 2333" d="M75.246,108.079v.442c0,8.144-13.045,4.954-18.338,10.873,1.5-5.687,4.675-9.583,9.866-11.315Z" transform="translate(-46.971 -70.423)" fill="#a4c422" fill-rule="evenodd"/>
        </g>
        <g id="Group_855" data-name="Group 855" transform="translate(62.468 3.873)">
          <path id="Path_2334" data-name="Path 2334" d="M157.519,65.031h1.4v4.8q.749-.813,1.657-1.668a13.339,13.339,0,0,1,2.007-1.554,10.81,10.81,0,0,1,2.43-1.136,9.222,9.222,0,0,1,2.9-.438,9.753,9.753,0,0,1,3.99.792,9.305,9.305,0,0,1,3.059,2.148,9.515,9.515,0,0,1,1.959,3.18,10.916,10.916,0,0,1,.689,3.889,13.734,13.734,0,0,1-.847,4.89A11.174,11.174,0,0,1,174.35,83.8a10.916,10.916,0,0,1-3.821,2.534,13.337,13.337,0,0,1-5.03.907,17.94,17.94,0,0,1-1.9-.094,13.141,13.141,0,0,1-1.669-.281,11.15,11.15,0,0,1-1.523-.479,12.5,12.5,0,0,1-1.488-.709V95.767h-4.933V66.219Zm1.4,15.994a3.569,3.569,0,0,0,.484,1.8,4.765,4.765,0,0,0,1.354,1.481,6.836,6.836,0,0,0,2.08,1,9.17,9.17,0,0,0,2.66.365,5.779,5.779,0,0,0,2.6-.6,6.371,6.371,0,0,0,2.128-1.72,8.454,8.454,0,0,0,1.427-2.659,10.67,10.67,0,0,0,.52-3.42,15.669,15.669,0,0,0-.484-4.118,8.894,8.894,0,0,0-1.342-2.93,5.638,5.638,0,0,0-2.032-1.752,5.7,5.7,0,0,0-2.575-.584,7.351,7.351,0,0,0-2.043.281,8.941,8.941,0,0,0-1.85.761,9.724,9.724,0,0,0-1.608,1.1,11.2,11.2,0,0,0-1.318,1.314Z" transform="translate(-153.988 -54.542)" fill="#1ebbec"/>
          <path id="Path_2335" data-name="Path 2335" d="M215.543,60.453a15.589,15.589,0,0,1,4.643-3.243,12.155,12.155,0,0,1,4.933-1.074,5.913,5.913,0,0,1,2.43.5,6.254,6.254,0,0,1,1.971,1.377,6.451,6.451,0,0,1,1.33,2.054,6.562,6.562,0,0,1,.484,2.512V77.885h-4.909V63.309a4.328,4.328,0,0,0-1.113-3.222,3.9,3.9,0,0,0-2.853-1.095,6.475,6.475,0,0,0-1.644.229,11.126,11.126,0,0,0-1.766.636,15.132,15.132,0,0,0-1.789.97,15.737,15.737,0,0,0-1.717,1.251V77.885H210.61V46.856l3.531-1.209h1.4Z" transform="translate(-179.971 -45.647)" fill="#1ebbec"/>
          <path id="Path_2336" data-name="Path 2336" d="M278.942,86.78a4.5,4.5,0,0,1-1.633-1.178,2.57,2.57,0,0,1-.666-1.741q-.87.562-1.7,1.168a12.931,12.931,0,0,1-1.814,1.095,11.123,11.123,0,0,1-2.176.8,10.984,10.984,0,0,1-2.768.313,7.971,7.971,0,0,1-2.624-.407,5.9,5.9,0,0,1-1.983-1.116,4.94,4.94,0,0,1-1.258-1.689,5.012,5.012,0,0,1-.447-2.106,4.927,4.927,0,0,1,.628-2.482,6.775,6.775,0,0,1,1.729-1.971,13.039,13.039,0,0,1,2.551-1.543,26.693,26.693,0,0,1,3.1-1.209q1.644-.532,3.385-.949T276.644,73V71.662a10.687,10.687,0,0,0-.241-2.46,3.965,3.965,0,0,0-.749-1.616,2.779,2.779,0,0,0-1.294-.876,5.985,5.985,0,0,0-1.874-.261,5.024,5.024,0,0,0-1.91.354,5.249,5.249,0,0,0-1.536.949,4.945,4.945,0,0,0-1.088,1.4,5.518,5.518,0,0,0-.569,1.7h-4.5a4.812,4.812,0,0,1,1.1-2.46,7.657,7.657,0,0,1,2.285-1.825,12.354,12.354,0,0,1,3.131-1.136,16.468,16.468,0,0,1,3.64-.4,17.23,17.23,0,0,1,4.063.406,7.449,7.449,0,0,1,2.636,1.136,4.1,4.1,0,0,1,1.414,1.783,6.188,6.188,0,0,1,.423,2.325V83.861a2.57,2.57,0,0,0,.666,1.741,4.5,4.5,0,0,0,1.632,1.178Zm-2.3-12.428q-1.063.292-2.2.668t-2.225.844q-1.088.469-2.08,1.011a10.744,10.744,0,0,0-1.741,1.168,5.7,5.7,0,0,0-1.185,1.314,2.653,2.653,0,0,0-.435,1.439,3.372,3.372,0,0,0,.338,1.491,4.245,4.245,0,0,0,.895,1.23,4.136,4.136,0,0,0,1.281.834,3.856,3.856,0,0,0,1.5.3,6.46,6.46,0,0,0,1.572-.188,8.2,8.2,0,0,0,1.451-.511,15.181,15.181,0,0,0,1.4-.74q.7-.417,1.426-.9Z" transform="translate(-203.493 -54.542)" fill="#1ebbec"/>
          <path id="Path_2337" data-name="Path 2337" d="M316.544,65.031h.75l.653,4.358a7.9,7.9,0,0,1,1.451-1.752,10.23,10.23,0,0,1,1.923-1.376,10.117,10.117,0,0,1,2.225-.907,8.931,8.931,0,0,1,2.383-.323,9.223,9.223,0,0,1,2.14.25,7.073,7.073,0,0,1,1.971.793l-1.548,3.565a4.621,4.621,0,0,0-1.016-.74,5.479,5.479,0,0,0-1.088-.438,5.678,5.678,0,0,0-1.137-.2q-.58-.042-1.161-.042a7.116,7.116,0,0,0-1.8.23,7.035,7.035,0,0,0-1.681.677,6.449,6.449,0,0,0-1.475,1.147,7.4,7.4,0,0,0-1.185,1.637V86.78h-4.909V66.2Z" transform="translate(-226.973 -54.542)" fill="#1ebbec"/>
          <path id="Path_2338" data-name="Path 2338" d="M356.119,65.031h1.4v4.42a17.833,17.833,0,0,1,2.128-1.679,20.082,20.082,0,0,1,2.443-1.418,15,15,0,0,1,2.515-.97A8.837,8.837,0,0,1,367,65.031a7.752,7.752,0,0,1,2.213.333,8.265,8.265,0,0,1,2.08.938,7.052,7.052,0,0,1,1.644,1.429,4.206,4.206,0,0,1,.906,1.8,7.089,7.089,0,0,1,1.681-1.762,12.683,12.683,0,0,1,2.382-1.429,14.985,14.985,0,0,1,2.769-.959,12.152,12.152,0,0,1,2.865-.354,6.5,6.5,0,0,1,2.624.531A7,7,0,0,1,388.306,67a6.755,6.755,0,0,1,1.451,2.127,6.427,6.427,0,0,1,.532,2.6V86.78H385.38V72.309a4.209,4.209,0,0,0-.351-1.7,4.532,4.532,0,0,0-2.371-2.367,4.213,4.213,0,0,0-1.7-.354,9.3,9.3,0,0,0-2.068.24,10.979,10.979,0,0,0-2,.657,9.7,9.7,0,0,0-1.717.97,5.408,5.408,0,0,0-1.233,1.178V86.78h-4.909V72.309a4.088,4.088,0,0,0-.363-1.7A4.729,4.729,0,0,0,367.7,69.2a4.545,4.545,0,0,0-1.427-.959,4.3,4.3,0,0,0-1.717-.354,8.04,8.04,0,0,0-1.946.25,12.359,12.359,0,0,0-1.958.668,11.263,11.263,0,0,0-1.778.969,6.992,6.992,0,0,0-1.354,1.157V86.78h-4.933V66.219Z" transform="translate(-245.122 -54.542)" fill="#1ebbec"/>
          <path id="Path_2339" data-name="Path 2339" d="M468.931,72.273a4.355,4.355,0,0,0-.206-1.345,3.6,3.6,0,0,0-.568-1.106,2.926,2.926,0,0,0-.846-.75,2.028,2.028,0,0,0-1.04-.282,5.237,5.237,0,0,0-1.354.188,8.989,8.989,0,0,0-1.391.5,8.307,8.307,0,0,0-1.294.73,7.608,7.608,0,0,0-1.064.876V86.744h-7.424V72.273a4.132,4.132,0,0,0-.218-1.345,3.65,3.65,0,0,0-.593-1.106,3.073,3.073,0,0,0-.859-.75,1.941,1.941,0,0,0-.991-.282,4.941,4.941,0,0,0-1.294.188,9.185,9.185,0,0,0-1.378.5,10.006,10.006,0,0,0-1.33.73,9.188,9.188,0,0,0-1.148.876V86.744h-7.5V67.331l5.247-2.378h2.249v2.315a17.827,17.827,0,0,1,3.663-1.647,11.978,11.978,0,0,1,3.64-.6,10.335,10.335,0,0,1,1.946.188,11.291,11.291,0,0,1,1.886.532,9.261,9.261,0,0,1,1.681.834,6.239,6.239,0,0,1,1.33,1.115,14.874,14.874,0,0,1,1.862-1.084,14.256,14.256,0,0,1,2.14-.845,18.2,18.2,0,0,1,2.3-.542,14,14,0,0,1,2.334-.2,8.578,8.578,0,0,1,2.987.522,7.981,7.981,0,0,1,2.478,1.439,7.047,7.047,0,0,1,1.693,2.148,5.741,5.741,0,0,1,.629,2.648V86.744h-7.569Z" transform="translate(-284.516 -54.506)" fill="#1ebbec"/>
          <path id="Path_2340" data-name="Path 2340" d="M524.544,80.833a6.081,6.081,0,0,0,1.874,2.721,4.762,4.762,0,0,0,3.059.97,5.6,5.6,0,0,0,1.415-.167A3.83,3.83,0,0,0,532,83.889a2.347,2.347,0,0,0,.725-.7,1.554,1.554,0,0,0,.254-.855,2.741,2.741,0,0,0-.327-1.345,3.716,3.716,0,0,0-.906-1.074,7.533,7.533,0,0,0-1.379-.886,18.275,18.275,0,0,0-1.717-.761q-1.475-.563-2.926-1.22a14.8,14.8,0,0,1-2.612-1.5,7.452,7.452,0,0,1-1.874-1.929,4.442,4.442,0,0,1-.714-2.5,4.8,4.8,0,0,1,.654-2.471,5.845,5.845,0,0,1,1.838-1.908,9.411,9.411,0,0,1,2.829-1.23,14.089,14.089,0,0,1,3.628-.438,15.924,15.924,0,0,1,3.216.292,9.877,9.877,0,0,1,2.466.834,7.99,7.99,0,0,1,1.886,1.324,10.341,10.341,0,0,1,1.475,1.762l-4.353,1.293a4.7,4.7,0,0,0-.823-1.584,3.55,3.55,0,0,0-1.016-.845,3.014,3.014,0,0,0-1.04-.344,7.445,7.445,0,0,0-.9-.063,6.3,6.3,0,0,0-1.33.136,4.485,4.485,0,0,0-1.112.386,2.357,2.357,0,0,0-.774.615,1.317,1.317,0,0,0-.29.845,2.027,2.027,0,0,0,.363,1.147,4.029,4.029,0,0,0,1.016,1.011,9.837,9.837,0,0,0,1.536.886q.882.417,1.923.792,1.572.563,3.059,1.251a14.891,14.891,0,0,1,2.648,1.554,7.816,7.816,0,0,1,1.862,1.919,4.14,4.14,0,0,1,.7,2.346,6.415,6.415,0,0,1-.532,2.607,5.292,5.292,0,0,1-1.729,2.106,9.186,9.186,0,0,1-3.1,1.418,17.616,17.616,0,0,1-4.607.521,14.508,14.508,0,0,1-3.93-.459,10.058,10.058,0,0,1-2.72-1.178,7.734,7.734,0,0,1-1.838-1.616,19.025,19.025,0,0,1-1.282-1.773Z" transform="translate(-322.065 -54.559)" fill="#1ebbec"/>
        </g>
      </g>
    </g>
  </g>
</svg>
